<?xml version="1.0" encoding="UTF-8"?>
<svg id="Layer_1" data-name="Layer 1" xmlns="http://www.w3.org/2000/svg" viewBox="0 0 50 51">
  <path d="M19.29,31.08v-3.79H3.96c-.21,0-.39-.18-.39-.4v-2.79c0-.22.18-.4.39-.4h15.33v-3.79c0-.33.38-.52.63-.31l6.93,5.58s.08.08.11.14c.03.05.04.11.04.17s-.01.12-.04.17c-.03.05-.06.1-.11.14l-6.93,5.58c-.25.2-.63.02-.63-.31ZM25.47,4.08c-7.45-.02-14,3.91-17.74,9.85-.17.26.02.61.33.61h3.43c.23,0,.45-.1.6-.29.34-.42.71-.83,1.09-1.22,1.59-1.62,3.44-2.89,5.5-3.78,2.13-.92,4.39-1.38,6.73-1.38s4.6.46,6.73,1.38c2.06.89,3.91,2.16,5.5,3.78s2.84,3.51,3.71,5.6c.9,2.17,1.36,4.48,1.36,6.86s-.46,4.69-1.36,6.86c-.87,2.1-2.12,3.98-3.71,5.6-1.59,1.62-3.44,2.89-5.5,3.78-2.13.92-4.42,1.39-6.73,1.38-2.34,0-4.6-.47-6.73-1.38-2.06-.89-3.93-2.17-5.5-3.78-.39-.39-.75-.8-1.09-1.22-.15-.18-.37-.29-.6-.29h-3.43c-.31,0-.5.35-.33.61,3.74,5.92,10.26,9.85,17.69,9.85,11.53,0,20.9-9.47,21.02-21.2.12-11.92-9.26-21.61-20.96-21.64Z"/>
</svg>