<?xml version="1.0" encoding="UTF-8"?>
<svg xmlns="http://www.w3.org/2000/svg" width="124" height="179" viewBox="0 0 124 179" fill="none">
  <g clip-path="url(#clip0_3706_2243)">
    <path d="M65.7032 18.9005C67.7998 21.577 67.3239 25.4468 64.6481 27.537C63.7653 28.2268 62.7653 28.6407 61.7308 28.7855C61.5101 28.7993 61.2757 28.82 61.055 28.8407C61.0412 28.8407 61.0136 28.8407 60.9929 28.8476C59.1515 29.0753 57.3584 29.7927 55.7929 31.0205C51.917 34.0557 50.7239 39.2431 52.5929 43.5614C52.5929 43.5614 52.5929 43.5752 52.6067 43.589C52.8205 44.1891 52.6412 44.8858 52.1101 45.2997C51.5308 45.755 50.717 45.7205 50.1722 45.2583C50.1722 45.2583 50.1584 45.2583 50.1653 45.2445C50.0963 45.1824 50.0274 45.1066 49.9653 45.0376L49.9377 45.0031C49.717 44.7548 49.4964 44.4926 49.2895 44.2236C43.4274 36.7322 44.7446 25.8952 52.2343 20.0318C54.3446 18.3831 56.717 17.3001 59.1653 16.769C59.186 16.7621 59.2136 16.7621 59.2343 16.7483C59.6136 16.6655 59.986 16.6034 60.3584 16.5482C60.3722 16.5482 60.3929 16.5482 60.4136 16.5482C62.3791 16.4103 64.386 17.2243 65.6964 18.9005H65.7032Z" fill="#EABB68"></path>
    <path d="M88.4758 48.0253C85.7999 50.1223 81.9309 49.6463 79.8413 46.9699C79.1516 46.0869 78.7378 45.0867 78.593 44.0519C78.5792 43.8312 78.5585 43.5967 78.5378 43.3759C78.5378 43.3621 78.5378 43.3345 78.5309 43.3138C78.3033 41.472 77.5861 39.6785 76.3585 38.1126C73.324 34.2359 68.1378 33.0425 63.8206 34.9119C63.8206 34.9119 63.8068 34.9119 63.793 34.9257C63.193 35.1395 62.4964 34.9602 62.0827 34.429C61.6275 33.8496 61.662 33.0356 62.124 32.4906C62.124 32.4906 62.124 32.4769 62.1378 32.4837C62.1999 32.4148 62.2758 32.3458 62.3447 32.2837L62.3792 32.2561C62.6275 32.0354 62.8896 31.8146 63.1585 31.6077C70.6482 25.7443 81.4827 27.0618 87.3447 34.5532C88.993 36.664 90.0758 39.037 90.6068 41.4858C90.6137 41.5065 90.6137 41.5341 90.6275 41.5548C90.7102 41.9342 90.7723 42.3067 90.8275 42.6792C90.8275 42.693 90.8275 42.7137 90.8275 42.7344C90.9654 44.7004 90.1516 46.7077 88.4758 48.0184V48.0253Z" fill="#EABB68"></path>
    <path d="M59.4203 70.4159C57.2548 67.6429 57.641 63.7178 60.2893 61.6484C61.1652 60.9655 62.1652 60.5654 63.1996 60.4412C63.4203 60.4412 63.6548 60.4136 63.8755 60.3998C63.8893 60.3998 63.9169 60.3998 63.9376 60.3929C65.7859 60.1998 67.579 59.51 69.1307 58.2959C72.9721 55.2883 74.0548 50.0319 72.0755 45.6033C72.0755 45.6033 72.0755 45.5895 72.0617 45.5757C71.8341 44.9549 71.9996 44.2513 72.5238 43.8443C73.0962 43.3959 73.9169 43.4511 74.4755 43.9271C74.4755 43.9271 74.4893 43.9271 74.4824 43.9409C74.5514 44.0029 74.6203 44.0788 74.6893 44.1547L74.7169 44.1892C74.9445 44.4444 75.1721 44.7203 75.3858 44.9963C81.4548 52.7498 80.3652 63.7523 72.9514 69.5606C70.8617 71.1954 68.4962 72.2439 66.041 72.7337C66.0203 72.7406 65.9928 72.7406 65.9721 72.7475C65.5928 72.8234 65.2203 72.8786 64.8479 72.9269C64.8341 72.9269 64.8134 72.9269 64.7927 72.9269C62.8134 73.0234 60.779 72.1474 59.4203 70.4159Z" fill="#EABB68"></path>
    <path d="M36.586 41.6774C39.2619 39.5803 43.1308 40.0563 45.2205 42.7328C45.9101 43.6157 46.3239 44.616 46.4687 45.6507C46.4825 45.8714 46.5032 46.106 46.5239 46.3267C46.5239 46.3405 46.5239 46.3681 46.5308 46.3888C46.7584 48.2306 47.4756 50.0241 48.7032 51.59C51.7377 55.4668 56.9239 56.6601 61.2412 54.7907C61.2412 54.7907 61.255 54.7907 61.2687 54.777C61.8687 54.5631 62.5653 54.7425 62.9791 55.2736C63.4343 55.8531 63.3998 56.667 62.9377 57.212C62.9377 57.212 62.9377 57.2258 62.9239 57.2189C62.8618 57.2879 62.786 57.3569 62.717 57.4189L62.6825 57.4465C62.4343 57.6673 62.1722 57.888 61.9032 58.095C54.4136 63.9584 43.5791 62.6408 37.717 55.1494C36.0687 53.0386 34.986 50.6657 34.455 48.2168C34.4481 48.1961 34.4481 48.1685 34.4343 48.1478C34.3515 47.7684 34.2894 47.3959 34.2343 47.0234C34.2343 47.0096 34.2343 46.9889 34.2343 46.9682C34.0963 45.0023 34.9101 42.9949 36.586 41.6843V41.6774Z" fill="#EABB68"></path>
    <path d="M101.862 28.7722C100.117 31.6901 96.3445 32.642 93.4273 30.8968C92.4687 30.3242 91.7238 29.531 91.2135 28.6204C91.1238 28.4135 91.0135 28.2134 90.9169 28.0134C90.91 27.9996 90.8962 27.972 90.8893 27.9582C90.0135 26.3233 88.7031 24.9092 86.9928 23.8883C82.7652 21.3636 77.4962 22.1223 74.1445 25.4197C74.1445 25.4197 74.1307 25.4266 74.1238 25.4404C73.6411 25.8542 72.9238 25.9439 72.3445 25.599C71.7169 25.2196 71.4549 24.447 71.6893 23.7779C71.6893 23.7779 71.6893 23.7641 71.6962 23.7641C71.7307 23.6813 71.7721 23.5917 71.8204 23.502L71.8411 23.4606C71.9928 23.164 72.1583 22.8673 72.3376 22.5776C77.2135 14.4102 87.7997 11.7406 95.9652 16.6176C98.2618 17.9904 100.124 19.8184 101.503 21.9085C101.517 21.9292 101.531 21.9499 101.545 21.9706C101.758 22.2948 101.951 22.619 102.131 22.9501C102.138 22.9639 102.151 22.9777 102.151 22.9984C102.986 24.785 102.951 26.951 101.862 28.7722Z" fill="#EABB68"></path>
    <path d="M81.5028 83.3355C78.3787 82.0042 76.9235 78.3896 78.2546 75.2647C78.6959 74.2369 79.3718 73.3884 80.2063 72.7676C80.3925 72.6503 80.5856 72.5192 80.7718 72.3882C80.7856 72.3744 80.8063 72.3606 80.8201 72.3537C82.3166 71.2638 83.5442 69.7738 84.3235 67.9389C86.2546 63.4068 84.7856 58.2884 81.0684 55.4118C81.0615 55.4118 81.0546 55.398 81.0408 55.3911C80.5649 54.9634 80.3856 54.2736 80.6477 53.6528C80.9373 52.9768 81.6684 52.6112 82.3649 52.756C82.3649 52.756 82.3718 52.756 82.3787 52.756C82.4684 52.7767 82.5649 52.8112 82.6546 52.8388L82.6959 52.8595C83.0132 52.9699 83.3304 53.094 83.6408 53.232C92.3925 56.957 96.4684 67.0835 92.7442 75.8372C91.6959 78.2999 90.1373 80.3969 88.2546 82.0456C88.2408 82.0663 88.2132 82.0801 88.1994 82.0939C87.9097 82.3491 87.6132 82.5836 87.3097 82.8113C87.2959 82.8251 87.2822 82.832 87.2615 82.8389C85.6063 83.9081 83.4546 84.1633 81.5028 83.3286V83.3355Z" fill="#EABB68"></path>
    <path d="M24.8823 66.4292C26.0547 63.2423 29.5927 61.6074 32.7789 62.7801C33.8271 63.1664 34.7099 63.801 35.372 64.6081C35.4961 64.7943 35.6409 64.9737 35.7789 65.153C35.7927 65.1668 35.8065 65.1875 35.8202 65.2013C36.9858 66.643 38.5375 67.795 40.3996 68.4848C45.0202 70.1818 50.0547 68.4641 52.7444 64.6012C52.7444 64.5943 52.7582 64.5874 52.7651 64.5736C53.1651 64.0769 53.8478 63.8631 54.4823 64.0907C55.172 64.346 55.572 65.0565 55.4685 65.7601C55.4685 65.7601 55.4685 65.767 55.4685 65.7739C55.4547 65.8635 55.4271 65.9601 55.3996 66.0567L55.3858 66.0981C55.2892 66.4154 55.1789 66.7396 55.0616 67.0638C51.7789 75.99 41.8754 80.5773 32.9444 77.2938C30.4271 76.3694 28.2616 74.9208 26.5237 73.1204C26.503 73.1066 26.4892 73.0859 26.4685 73.0652C26.1996 72.7893 25.9513 72.5065 25.7099 72.2167C25.6961 72.2029 25.6892 72.1891 25.6754 72.1753C24.5237 70.575 24.1582 68.4435 24.8961 66.443L24.8823 66.4292Z" fill="#EABB68"></path>
    <path d="M40.8822 7.39353C44.0477 8.6214 45.627 12.1808 44.3994 15.354C43.9925 16.3956 43.3442 17.2648 42.5304 17.9201C42.3442 18.0443 42.158 18.1822 41.9787 18.3133C41.9649 18.3271 41.9442 18.3409 41.9304 18.3547C40.4684 19.4929 39.2891 21.0243 38.5718 22.8799C36.7925 27.474 38.427 32.5373 42.2408 35.2896C42.2477 35.2896 42.2546 35.3034 42.2684 35.3103C42.758 35.7173 42.9649 36.4071 42.7236 37.0349C42.4615 37.7178 41.7442 38.1041 41.0408 37.9868C41.0408 37.9868 41.0339 37.9868 41.027 37.9868C40.9373 37.9661 40.8408 37.9385 40.7511 37.9109L40.7098 37.8971C40.3925 37.8006 40.0684 37.6833 39.7511 37.5591C30.8822 34.1238 26.4684 24.1422 29.9029 15.2643C30.8684 12.7672 32.358 10.6219 34.1856 8.91113C34.1994 8.89043 34.2201 8.87664 34.2408 8.85594C34.5236 8.59381 34.8132 8.34548 35.1029 8.11094C35.1167 8.09715 35.1304 8.09025 35.1442 8.07645C36.7649 6.95205 38.9029 6.62784 40.8822 7.39353Z" fill="#EABB68"></path>
    <path d="M97.517 63.6143C94.1653 63.0762 91.8756 59.9238 92.4136 56.5713C92.5929 55.4676 93.0481 54.4811 93.7032 53.674C93.8618 53.5154 94.0067 53.3429 94.1584 53.1705C94.1653 53.1567 94.186 53.136 94.1998 53.1222C95.3929 51.7012 96.2205 49.9559 96.5377 47.99C97.317 43.1268 94.655 38.5119 90.3515 36.6218C90.3446 36.6218 90.3377 36.6149 90.3239 36.608C89.7584 36.3114 89.4136 35.6837 89.5239 35.0146C89.6412 34.2903 90.2619 33.7591 90.9722 33.7246C90.9722 33.7246 90.9791 33.7246 90.986 33.7246C91.0756 33.7246 91.1791 33.7315 91.2756 33.7384H91.317C91.6481 33.7729 91.986 33.8212 92.3239 33.8764C101.717 35.3733 108.124 44.2167 106.62 53.612C106.2 56.2609 105.193 58.6614 103.765 60.7171C103.752 60.7377 103.738 60.7584 103.724 60.7791C103.503 61.0965 103.276 61.4 103.034 61.6897C103.027 61.7035 103.014 61.7173 103 61.7311C101.648 63.1728 99.6274 63.9385 97.5308 63.6005L97.517 63.6143Z" fill="#EABB68"></path>
    <path d="M48.4894 83.3496C48.3445 79.9557 50.9721 77.0792 54.3652 76.9343C55.4825 76.8861 56.5377 77.1344 57.4618 77.6173C57.648 77.7414 57.848 77.8518 58.048 77.9622C58.0618 77.9622 58.0894 77.9829 58.1032 77.9898C59.7308 78.8727 61.6066 79.3349 63.5928 79.2521C68.517 79.0383 72.4963 75.5064 73.4825 70.9123C73.4825 70.9054 73.4894 70.8985 73.4825 70.8847C73.6618 70.2707 74.2066 69.8086 74.8825 69.781C75.6135 69.7465 76.2618 70.25 76.4342 70.9399C76.4342 70.9399 76.4411 70.9468 76.4342 70.9536C76.4549 71.0433 76.4618 71.1399 76.4756 71.2365V71.2848C76.517 71.6159 76.5377 71.9539 76.5514 72.2988C76.9652 81.8044 69.5928 89.8546 60.0894 90.2685C57.4135 90.3857 54.8549 89.8822 52.5514 88.8888C52.5308 88.8888 52.5032 88.8681 52.4825 88.8612C52.1308 88.7095 51.7859 88.5439 51.4549 88.3715C51.4411 88.3646 51.4273 88.3577 51.4066 88.3439C49.7239 87.3092 48.5721 85.4811 48.4756 83.3565L48.4894 83.3496Z" fill="#EABB68"></path>
    <path d="M24.5306 30.5997C27.9306 30.5859 30.6892 33.3313 30.703 36.7321C30.703 37.8496 30.4134 38.8981 29.8961 39.8018C29.7651 39.9811 29.6479 40.1812 29.5306 40.3674C29.5237 40.3812 29.5099 40.4088 29.503 40.4226C28.5582 42.0161 28.0203 43.8717 28.0272 45.8653C28.0479 50.7905 31.4134 54.9156 35.9651 56.0814C35.972 56.0814 35.9789 56.0883 35.9927 56.0883C36.5996 56.2884 37.041 56.854 37.041 57.53C37.041 58.2612 36.5168 58.889 35.8203 59.0338C35.8203 59.0338 35.8134 59.0407 35.8065 59.0338C35.7168 59.0476 35.6203 59.0545 35.5168 59.0683H35.4685C35.1375 59.089 34.7927 59.1028 34.4548 59.1028C24.9444 59.1373 17.1996 51.4459 17.1651 41.9333C17.1582 39.2568 17.7582 36.7183 18.841 34.4557C18.8479 34.435 18.8617 34.4074 18.8685 34.3867C19.0341 34.0349 19.2134 33.7038 19.3996 33.3796C19.4065 33.3658 19.4134 33.352 19.4272 33.3313C20.5237 31.6896 22.3996 30.6135 24.5237 30.6066L24.5306 30.5997Z" fill="#EABB68"></path>
    <path d="M79.0203 8.71836C78.6479 12.0985 75.6065 14.5335 72.2272 14.1541C71.1168 14.0299 70.1099 13.6229 69.2686 13.0021C69.1031 12.8573 68.9168 12.7124 68.7444 12.5675C68.7306 12.5606 68.7099 12.5399 68.6962 12.533C67.2203 11.4086 65.441 10.6636 63.4617 10.4429C58.5651 9.89795 54.0893 12.7745 52.4065 17.1686C52.4065 17.1755 52.3996 17.1824 52.3927 17.1962C52.1237 17.7756 51.5099 18.1481 50.841 18.0723C50.1099 17.9895 49.5513 17.3962 49.4893 16.6857C49.4893 16.6857 49.4893 16.6788 49.4893 16.6719C49.4893 16.5823 49.4893 16.4788 49.4893 16.3822V16.3339C49.5099 16.0028 49.5375 15.6579 49.5789 15.3199C50.6272 5.86253 59.1513 -0.959735 68.5996 0.0887829C71.2617 0.385403 73.7168 1.27526 75.8341 2.60661C75.8548 2.6135 75.8755 2.6342 75.8962 2.6411C76.2272 2.84804 76.5375 3.06188 76.8341 3.28952C76.8479 3.29642 76.8617 3.31022 76.8755 3.32401C78.3789 4.60017 79.241 6.58684 79.0065 8.69767L79.0203 8.71836Z" fill="#EABB68"></path>
    <path d="M15.5517 123.676L2.55172 102.416H0V134.43H3.47586V110.418L15.5517 130.222L27.5862 110.425V134.43H31.0621V102.416H28.5586L15.5517 123.676Z" fill="#28A9A6"></path>
    <path d="M54.1864 102.416L39.752 134.423H43.5451L47.3864 125.711H63.3589L67.2416 134.423H70.9933L56.6002 102.416H54.1795H54.1864ZM48.8278 122.448L55.3588 107.631L61.9657 122.448H48.8278Z" fill="#28A9A6"></path>
    <path d="M83.2068 102.416H79.731V134.423H83.2068V102.416Z" fill="#28A9A6"></path>
    <path d="M109.607 102.416H107.186L92.752 134.423H96.5451L100.386 125.711H116.359L120.242 134.423H123.993L109.6 102.416H109.607ZM101.821 122.448L108.352 107.631L114.959 122.448H101.821Z" fill="#28A9A6"></path>
    <path d="M8.94482 154.483V154.455C8.94482 152.779 10.3034 151.903 12.2759 151.903C13.2897 151.903 13.9517 152.041 14.6621 152.234V151.992C14.6621 150.606 13.8138 149.882 12.3517 149.882C11.4345 149.882 10.7103 150.095 9.9862 150.44L9.64138 149.488C10.5034 149.081 11.331 148.826 12.4759 148.826C13.6207 148.826 14.4207 149.116 14.9931 149.688C15.5379 150.233 15.8069 150.999 15.8069 151.986V156.752H14.6621V155.593C14.1172 156.304 13.2276 156.925 11.8552 156.925C10.3931 156.925 8.94482 156.111 8.94482 154.496V154.483ZM14.6759 153.883V153.158C14.0897 152.993 13.3655 152.827 12.4 152.827C10.9517 152.827 10.1241 153.448 10.1241 154.4V154.427C10.1241 155.407 11.0414 155.98 12.0828 155.98C13.5172 155.98 14.6759 155.131 14.6759 153.883Z" fill="#6F7072"></path>
    <path d="M72.5933 148.944H73.7519V150.979C74.3243 149.683 75.4553 148.758 76.9381 148.806V150.062H76.8484C75.145 150.062 73.7588 151.283 73.7588 153.642V156.753H72.6002V148.951L72.5933 148.944Z" fill="#6F7072"></path>
    <path d="M79.3931 153.324C79.5586 154.973 80.7655 155.918 82.1379 155.918C83.2276 155.918 83.9517 155.483 84.6 154.814L85.3242 155.463C84.5379 156.353 83.6069 156.925 82.1104 156.925C79.9862 156.925 78.2207 155.283 78.2207 152.848C78.2207 150.586 79.7931 148.771 81.9655 148.771C84.2759 148.771 85.6 150.613 85.6 152.903C85.6 153.007 85.6 153.131 85.5862 153.31H79.4L79.3931 153.324ZM84.4207 152.386C84.2966 150.986 83.4552 149.758 81.9311 149.758C80.6 149.758 79.5655 150.875 79.3931 152.386H84.4138H84.4207Z" fill="#6F7072"></path>
    <path d="M86.9864 155.753L87.5726 154.925C88.4209 155.574 89.3519 155.919 90.276 155.919C91.2002 155.919 91.8898 155.449 91.8898 154.684V154.656C91.8898 153.884 90.9726 153.566 89.945 153.283C88.7381 152.918 87.3657 152.532 87.3657 151.083V151.055C87.3657 149.71 88.4829 148.82 90.0209 148.82C90.9864 148.82 92.0278 149.151 92.8278 149.683L92.2967 150.559C91.5726 150.09 90.7588 149.807 89.9864 149.807C89.0691 149.807 88.476 150.29 88.476 150.938V150.966C88.476 151.704 89.4416 151.993 90.4829 152.311C91.6898 152.676 92.9864 153.139 92.9864 154.546V154.573C92.9864 156.05 91.7657 156.912 90.2071 156.912C89.076 156.912 87.8691 156.477 86.9795 155.767L86.9864 155.753Z" fill="#6F7072"></path>
    <path d="M94.6689 152.884V152.856C94.6689 150.635 96.3724 148.779 98.7448 148.779C101.117 148.779 102.8 150.621 102.8 152.822V152.849C102.8 155.07 101.062 156.926 98.7103 156.926C96.3586 156.926 94.6689 155.084 94.6689 152.884ZM101.607 152.884V152.856C101.607 151.18 100.352 149.807 98.7103 149.807C97.0689 149.807 95.862 151.18 95.862 152.829V152.856C95.862 154.532 97.0965 155.891 98.7448 155.891C100.393 155.891 101.614 154.519 101.614 152.891L101.607 152.884Z" fill="#6F7072"></path>
    <path d="M104.896 148.944H106.055V150.979C106.628 149.683 107.759 148.758 109.241 148.806V150.062H109.152C107.448 150.062 106.062 151.283 106.062 153.642V156.753H104.903V148.951L104.896 148.944Z" fill="#6F7072"></path>
    <path d="M111.414 154.683V149.972H110.324V148.944H111.414V146.592H112.572V148.944H115.048V149.972H112.572V154.532C112.572 155.497 113.104 155.828 113.883 155.828C114.29 155.828 114.607 155.753 115.014 155.559V156.553C114.607 156.78 114.166 156.884 113.614 156.884C112.345 156.884 111.414 156.263 111.414 154.683Z" fill="#6F7072"></path>
    <path d="M22.207 150.461H21.2139V148.978H22.207V148.398C22.207 147.536 22.4208 146.887 22.8415 146.46C23.2552 146.046 23.8484 145.832 24.607 145.832C24.9242 145.832 25.1932 145.853 25.4208 145.894C25.6484 145.936 25.8621 145.984 26.0552 146.046V147.557C25.8759 147.494 25.7035 147.453 25.5449 147.419C25.3794 147.384 25.2001 147.363 25.0001 147.363C24.3104 147.363 23.9587 147.764 23.9587 148.564V148.998H26.0346V150.468H23.9863V156.759H22.1932V150.468L22.207 150.461Z" fill="#6F7072"></path>
    <path d="M30.4552 156.917C29.5655 156.917 28.8758 156.648 28.3931 156.103C27.9103 155.558 27.6689 154.827 27.6689 153.909V148.922H29.4621V153.364C29.4621 153.978 29.6069 154.447 29.8965 154.772C30.1862 155.096 30.6 155.261 31.1379 155.261C31.6758 155.261 32.0896 155.096 32.4138 154.758C32.7379 154.42 32.9034 153.951 32.9034 153.337V148.929H34.6965V156.765H32.9034V155.537C32.6483 155.917 32.3241 156.241 31.9379 156.517C31.5517 156.793 31.0552 156.931 30.4552 156.931V156.917Z" fill="#6F7072"></path>
    <path d="M40.0072 156.904C39.4417 156.904 38.8693 156.808 38.2968 156.608C37.7175 156.408 37.1796 156.118 36.6899 155.732L37.4899 154.518C37.9244 154.835 38.3589 155.076 38.7934 155.235C39.2279 155.4 39.6486 155.476 40.0555 155.476C40.4624 155.476 40.7382 155.4 40.952 155.249C41.1658 155.097 41.2693 154.89 41.2693 154.635V154.607C41.2693 154.455 41.221 154.331 41.1313 154.221C41.0348 154.111 40.9106 154.021 40.7451 153.938C40.5796 153.862 40.3934 153.786 40.1796 153.717C39.9658 153.648 39.7451 153.579 39.5175 153.51C39.2279 153.435 38.9382 153.338 38.6486 153.228C38.3589 153.117 38.0968 152.979 37.8624 152.807C37.6279 152.634 37.4417 152.42 37.2899 152.158C37.1382 151.903 37.0693 151.586 37.0693 151.206V151.179C37.0693 150.813 37.1382 150.482 37.283 150.185C37.4279 149.889 37.621 149.634 37.8761 149.427C38.1313 149.22 38.4279 149.061 38.7658 148.951C39.1037 148.84 39.4693 148.785 39.8555 148.785C40.352 148.785 40.8486 148.861 41.352 149.02C41.8555 149.178 42.3175 149.399 42.7313 149.675L42.021 150.951C41.6417 150.724 41.2624 150.544 40.8761 150.406C40.4899 150.275 40.1313 150.206 39.8072 150.206C39.4624 150.206 39.1934 150.275 39.0003 150.42C38.8072 150.565 38.7106 150.751 38.7106 150.979V151.006C38.7106 151.151 38.7589 151.282 38.8555 151.386C38.952 151.489 39.083 151.586 39.2486 151.669C39.4141 151.751 39.6003 151.834 39.8141 151.903C40.0279 151.979 40.2486 152.048 40.4761 152.117C40.7658 152.207 41.0486 152.31 41.3382 152.427C41.6279 152.545 41.883 152.69 42.1175 152.862C42.352 153.034 42.5382 153.248 42.6899 153.49C42.8348 153.738 42.9106 154.042 42.9106 154.393V154.421C42.9106 154.835 42.8348 155.2 42.6899 155.504C42.5382 155.807 42.3382 156.063 42.0761 156.27C41.8141 156.47 41.5037 156.628 41.152 156.732C40.7934 156.835 40.4141 156.89 40.0072 156.89V156.904Z" fill="#6F7072"></path>
    <path d="M45.1587 146.012H47.0897V147.716H45.1587V146.012ZM45.2277 148.923H47.0208V156.759H45.2277V148.923Z" fill="#6F7072"></path>
    <path d="M53.4623 156.931C52.8692 156.931 52.3174 156.828 51.8071 156.614C51.2968 156.4 50.8554 156.11 50.4899 155.745C50.1174 155.379 49.8278 154.951 49.6209 154.455C49.414 153.958 49.3105 153.434 49.3105 152.882V152.854C49.3105 152.289 49.414 151.764 49.6278 151.268C49.8416 150.771 50.1312 150.343 50.5037 149.971C50.8761 149.598 51.3174 149.309 51.8209 149.088C52.3312 148.867 52.883 148.764 53.4899 148.764C54.0968 148.764 54.6485 148.867 55.1588 149.081C55.6692 149.295 56.1105 149.585 56.4761 149.957C56.8485 150.33 57.1381 150.757 57.345 151.247C57.5519 151.737 57.6554 152.261 57.6554 152.827V152.854C57.6554 153.406 57.5519 153.93 57.3381 154.427C57.1243 154.924 56.8347 155.351 56.4623 155.724C56.0899 156.096 55.6485 156.386 55.1381 156.607C54.6209 156.828 54.0623 156.931 53.4623 156.931ZM53.4899 155.358C53.8554 155.358 54.1864 155.289 54.4761 155.158C54.7657 155.027 55.0209 154.848 55.2278 154.627C55.4347 154.406 55.5933 154.144 55.7036 153.841C55.814 153.537 55.8692 153.22 55.8692 152.882V152.854C55.8692 152.509 55.8071 152.185 55.6899 151.875C55.5726 151.571 55.4071 151.302 55.1933 151.075C54.9795 150.847 54.7312 150.668 54.4347 150.53C54.145 150.399 53.8209 150.33 53.4623 150.33C53.1036 150.33 52.7795 150.399 52.4899 150.53C52.2002 150.661 51.945 150.84 51.7381 151.061C51.5312 151.281 51.3726 151.551 51.2623 151.854C51.1519 152.158 51.0968 152.482 51.0968 152.82V152.847C51.0968 153.192 51.1588 153.516 51.2761 153.82C51.3933 154.124 51.5588 154.386 51.7726 154.613C51.9864 154.841 52.2347 155.02 52.5312 155.158C52.8209 155.289 53.145 155.358 53.4899 155.358Z" fill="#6F7072"></path>
    <path d="M59.855 148.922H61.6481V150.123C61.7792 149.943 61.9171 149.771 62.0688 149.605C62.2206 149.44 62.3999 149.295 62.5999 149.171C62.7999 149.046 63.0275 148.95 63.2688 148.874C63.5102 148.798 63.7861 148.764 64.0895 148.764C64.9792 148.764 65.6688 149.033 66.1516 149.578C66.6344 150.123 66.8757 150.847 66.8757 151.757V156.759H65.0826V152.309C65.0826 151.695 64.9378 151.226 64.6481 150.895C64.3585 150.564 63.9447 150.399 63.4068 150.399C62.8688 150.399 62.455 150.571 62.1309 150.909C61.8068 151.247 61.6412 151.73 61.6412 152.344V156.766H59.8481V148.929L59.855 148.922Z" fill="#6F7072"></path>
    <path d="M27.0068 168.031H29.1448V172.839H34.0758V168.031H36.1999V178.785H34.0758V174.826H29.1448V178.785H27.0068V168.031Z" fill="#28A9A6"></path>
    <path d="M37.8691 173.42C37.8691 170.143 40.1588 167.818 43.6347 167.818C47.1105 167.818 49.4278 170.046 49.4278 173.42C49.4278 176.793 47.1243 179 43.6347 179C40.145 179 37.8691 176.786 37.8691 173.42ZM47.1795 173.42C47.1795 171.323 45.7864 169.84 43.6278 169.84C41.4691 169.84 40.0967 171.254 40.0967 173.42C40.0967 175.586 41.5105 176.986 43.6278 176.986C45.745 176.986 47.1795 175.593 47.1795 173.42Z" fill="#28A9A6"></path>
    <path d="M57.0067 170.052H53.5791V168.031H62.6205V170.052H59.1929V178.792H57.0067V170.052Z" fill="#28A9A6"></path>
    <path d="M70.5102 178.785L68.3722 175.723H66.1584V178.785H64.0205V168.031H68.386C71.2067 168.031 72.724 169.397 72.724 171.867C72.724 173.598 71.9791 174.75 70.586 175.309L73.1171 178.785H70.5102ZM70.4757 171.977C70.4757 170.639 69.7653 169.942 68.1998 169.942H66.1515V173.888H68.0343C69.7033 173.888 70.4757 173.115 70.4757 171.977Z" fill="#28A9A6"></path>
    <path d="M81.3791 176.738H76.6756L75.7515 178.787H73.4136L78.3308 167.984H79.7239L84.655 178.787H82.317L81.3791 176.738ZM78.2136 173.027L77.4067 174.938H80.6687L79.8619 173.027L79.0274 170.826L78.2067 173.027H78.2136Z" fill="#28A9A6"></path>
    <path d="M97.0071 167.983V178.786H94.8967V172.716L91.7864 176.93H90.9795L87.8553 172.743V178.779H85.7588V167.977H86.8829L91.3864 174.088L95.8622 167.977H97.0002L97.0071 167.983Z" fill="#28A9A6"></path>
  </g>
  <defs>
    <clipPath id="clip0_3706_2243">
      <rect width="124" height="179" fill="white"></rect>
    </clipPath>
  </defs>
</svg>
