<?xml version="1.0" encoding="UTF-8"?>
<svg xmlns="http://www.w3.org/2000/svg" width="25" height="25" viewBox="0 0 25 25" fill="none">
  <path d="M15.4453 4.25C16.7167 4.59194 17.876 5.26196 18.807 6.19294C19.738 7.12392 20.408 8.28319 20.7499 9.55462" stroke="#272D35" stroke-width="1.5" stroke-linecap="round" stroke-linejoin="round"></path>
  <path d="M14.6689 7.14844C15.4318 7.3536 16.1274 7.75561 16.686 8.3142C17.2445 8.87279 17.6466 9.56835 17.8517 10.3312" stroke="#272D35" stroke-width="1.5" stroke-linecap="round" stroke-linejoin="round"></path>
  <path d="M9.16965 12.2024C9.94762 13.7929 11.2369 15.0763 12.8309 15.847C12.9475 15.9023 13.0765 15.9262 13.2052 15.9165C13.3339 15.9067 13.4579 15.8636 13.5648 15.7915L15.9119 14.2264C16.0157 14.1572 16.1352 14.1149 16.2594 14.1035C16.3837 14.0921 16.5088 14.1119 16.6235 14.161L21.0144 16.0428C21.1636 16.1062 21.2881 16.2163 21.3693 16.3566C21.4504 16.4969 21.4838 16.6598 21.4643 16.8207C21.3255 17.9067 20.7956 18.9049 19.9739 19.6283C19.1521 20.3518 18.0948 20.7509 17 20.7509C13.6185 20.7509 10.3755 19.4076 7.98439 17.0166C5.5933 14.6255 4.25 11.3825 4.25 8.00095C4.25006 6.90611 4.64918 5.84883 5.37264 5.02708C6.0961 4.20533 7.09428 3.67545 8.18028 3.53667C8.34117 3.5172 8.50403 3.55054 8.64432 3.63167C8.78461 3.71281 8.89473 3.83734 8.9581 3.9865L10.8416 8.3813C10.8903 8.49497 10.9101 8.61893 10.8994 8.74214C10.8886 8.86534 10.8475 8.98397 10.7798 9.08745L9.22011 11.4705C9.14912 11.5778 9.10716 11.7015 9.09831 11.8298C9.08947 11.9581 9.11405 12.0864 9.16965 12.2024V12.2024Z" stroke="#272D35" stroke-width="1.5" stroke-linecap="round" stroke-linejoin="round"></path>
</svg>
